<svg width="201" height="202" viewBox="0 0 201 202" fill="none" xmlns="http://www.w3.org/2000/svg">
<path d="M88.9541 178.23L96.8141 178.861L96.6444 180.976L88.7844 180.346L88.9541 178.23ZM96.0782 178.801L98.7152 179.013L97.5217 193.895L94.8846 193.683L96.0782 178.801ZM89.4552 184.936L96.2829 185.484L96.1157 187.569L89.288 187.021L89.4552 184.936ZM87.9822 190.99L95.7911 191.616L95.6206 193.742L87.8116 193.116L87.9822 190.99Z" fill="white"/>
<path d="M79.7516 176.143L82.184 176.885L78.9478 187.497L76.6625 186.801L77.2063 184.49L79.7516 176.143ZM79.2361 182.193C78.9165 183.218 78.4635 184.059 77.8771 184.716C77.2887 185.38 76.6126 185.828 75.8488 186.059C75.0829 186.297 74.2782 186.288 73.4347 186.031C72.7482 185.821 72.193 185.509 71.7693 185.094C71.3436 184.685 71.0789 184.147 70.9752 183.48C70.8695 182.818 70.9652 182.001 71.2623 181.026L73.347 174.19L75.7892 174.935L73.6985 181.791C73.549 182.281 73.5023 182.692 73.5584 183.024C73.608 183.353 73.7554 183.62 74.0007 183.823C74.2374 184.031 74.5552 184.196 74.954 184.318C75.3594 184.441 75.744 184.469 76.1077 184.402C76.4629 184.338 76.7955 184.197 77.1055 183.977C77.409 183.755 77.6775 183.472 77.9108 183.129C78.1376 182.784 78.3168 182.395 78.4484 181.964L79.2361 182.193Z" fill="white"/>
<path d="M49.9487 164.375C49.8089 164.561 49.7306 164.767 49.7138 164.994C49.6915 165.217 49.7675 165.496 49.9419 165.833C50.1163 166.17 50.4272 166.592 50.8747 167.1C51.4041 167.704 51.8268 168.296 52.143 168.876C52.4536 169.453 52.6132 170.013 52.6218 170.559C52.6249 171.1 52.4394 171.62 52.0652 172.116C51.7034 172.597 51.2338 172.937 50.6565 173.135C50.0696 173.335 49.427 173.365 48.7286 173.224C48.0207 173.085 47.3145 172.75 46.61 172.219C45.8672 171.66 45.3228 171.053 44.9768 170.399C44.6266 169.751 44.4699 169.106 44.5066 168.467C44.5338 167.828 44.7488 167.241 45.1517 166.706L47.1833 168.236C46.9202 168.585 46.821 168.99 46.8858 169.449C46.941 169.91 47.228 170.336 47.7468 170.726C48.069 170.969 48.3784 171.121 48.675 171.181C48.9661 171.238 49.2279 171.225 49.4605 171.144C49.6876 171.058 49.8752 170.917 50.0232 170.72C50.1671 170.529 50.2406 170.323 50.2437 170.103C50.2414 169.879 50.153 169.616 49.9786 169.313C49.7987 169.007 49.5109 168.628 49.1153 168.176C48.545 167.524 48.0963 166.904 47.7693 166.315C47.4381 165.732 47.2751 165.164 47.2802 164.612C47.2757 164.061 47.477 163.515 47.8841 162.975C48.2747 162.456 48.7723 162.107 49.3769 161.929C49.9761 161.747 50.6323 161.745 51.3457 161.923C52.0536 162.096 52.7734 162.459 53.5052 163.01C54.3189 163.622 54.8954 164.283 55.2345 164.992C55.5736 165.701 55.7193 166.388 55.6716 167.054C55.6143 167.721 55.4027 168.297 55.0368 168.783L53.079 167.309C53.3203 166.943 53.4337 166.588 53.4193 166.243C53.3994 165.895 53.2927 165.571 53.0991 165.271C52.8959 164.972 52.6469 164.712 52.352 164.49C52.0025 164.227 51.6781 164.056 51.3788 163.976C51.0741 163.892 50.802 163.884 50.5627 163.952C50.3137 164.021 50.1091 164.162 49.9487 164.375Z" fill="white"/>
<path d="M34.6958 155.747C34.2626 156.124 34.0224 156.545 33.9754 157.012C33.9238 157.474 34.1089 157.947 34.5306 158.432C34.7818 158.721 35.0532 158.928 35.3448 159.055C35.6312 159.187 35.9111 159.238 36.1845 159.208C36.4579 159.179 36.7029 159.07 36.9196 158.882L38.5884 160.8C38.1397 161.191 37.5959 161.414 36.9572 161.472C36.3133 161.533 35.6458 161.412 34.9548 161.107C34.2592 160.797 33.6042 160.288 32.9896 159.582C32.4423 158.952 32.0613 158.301 31.8466 157.627C31.6319 156.953 31.6174 156.291 31.8033 155.64C31.9847 154.984 32.3977 154.375 33.0425 153.815L36.733 150.605C37.125 150.264 37.4459 149.935 37.6957 149.618C37.9455 149.301 38.1365 148.994 38.2685 148.698L38.4001 148.584L40.1093 150.549C39.9844 150.812 39.7845 151.108 39.5096 151.438C39.2301 151.762 38.9383 152.057 38.6339 152.322L34.6958 155.747ZM36.1809 153.939L37.3249 155.254C37.9171 155.935 38.4898 156.338 39.0431 156.464C39.5868 156.589 40.0727 156.465 40.5008 156.093C40.8309 155.806 41.0082 155.452 41.0326 155.033C41.0518 154.617 40.882 154.203 40.5231 153.791C40.1956 153.414 39.8359 153.152 39.4441 153.003C39.0426 152.854 38.6615 152.796 38.3006 152.829C37.9346 152.866 37.6513 152.968 37.4508 153.133L37.778 151.775C38.0433 151.653 38.3623 151.561 38.7348 151.5C39.0977 151.438 39.4928 151.434 39.9203 151.488C40.3382 151.541 40.7603 151.673 41.1866 151.882C41.6034 152.09 42.0002 152.411 42.377 152.844C42.8525 153.391 43.1682 153.972 43.3239 154.589C43.4796 155.205 43.4768 155.801 43.3156 156.376C43.1448 156.951 42.8221 157.444 42.3476 157.857C41.4604 158.629 40.4902 158.888 39.437 158.635C38.3837 158.383 37.3255 157.645 36.2623 156.423L35.0106 154.984L36.1809 153.939Z" fill="white"/>
<path d="M21.2174 142.1L19.9396 139.795L31.5023 137.769L32.2978 139.204L30.4606 140.035L21.2174 142.1ZM30.1394 139.393L31.8106 138.325L32.6011 139.751L24.7724 148.512L23.4896 146.198L30.1394 139.393Z" fill="white"/>
<path d="M21.6225 130.042C20.5896 130.358 19.6079 130.443 18.6774 130.299C17.7469 130.154 16.9344 129.788 16.2399 129.2C15.5369 128.607 15.0275 127.794 14.7118 126.761C14.3921 125.715 14.358 124.75 14.6094 123.865C14.8543 122.983 15.3231 122.224 16.0159 121.591C16.7066 120.951 17.5684 120.473 18.6013 120.157L18.8073 120.095C19.8336 119.781 20.8154 119.695 21.7524 119.838C22.681 119.976 23.4935 120.342 24.1899 120.937C24.8844 121.525 25.3905 122.339 25.7082 123.378C26.0259 124.418 26.0623 125.379 25.8174 126.262C25.5725 127.144 25.1047 127.905 24.4139 128.545C23.7167 129.187 22.8548 129.665 21.8285 129.979L21.6225 130.042ZM21.0852 127.547C21.7127 127.355 22.2611 127.091 22.7301 126.755C23.1926 126.42 23.5248 126.022 23.7267 125.56C23.9266 125.092 23.9366 124.563 23.7568 123.975C23.579 123.393 23.2772 122.967 22.8515 122.697C22.4238 122.42 21.9258 122.276 21.3574 122.264C20.7804 122.247 20.1782 122.335 19.5506 122.526L19.3447 122.589C18.7236 122.779 18.1786 123.042 17.7095 123.379C17.2385 123.708 16.903 124.108 16.7031 124.576C16.4967 125.047 16.4834 125.576 16.6632 126.165C16.841 126.746 17.1471 127.175 17.5813 127.449C18.007 127.72 18.5083 127.863 19.0852 127.88C19.6602 127.89 20.2582 127.8 20.8792 127.61L21.0852 127.547Z" fill="white"/>
<path d="M22.5154 108.817L22.8167 111.342L11.8002 112.657L11.4988 110.132L22.5154 108.817ZM8.93819 113.164C8.55129 113.21 8.21728 113.122 7.93616 112.901C7.64825 112.681 7.47757 112.347 7.4241 111.899C7.37064 111.451 7.45748 111.082 7.68463 110.794C7.905 110.506 8.20863 110.339 8.59554 110.293C8.97565 110.247 9.31007 110.338 9.59878 110.565C9.88071 110.793 10.0484 111.131 10.1019 111.579C10.1553 112.027 10.0715 112.392 9.85031 112.673C9.62235 112.955 9.31831 113.118 8.93819 113.164Z" fill="white"/>
<path d="M22.1156 98.0426L22.03 100.584L10.9415 100.211L11.023 97.7922L13.1997 97.7424L22.1156 98.0426ZM13.4762 94.407C13.4436 94.5633 13.4175 94.73 13.3978 94.9071C13.3784 95.0775 13.3658 95.248 13.3601 95.4188C13.3412 95.9791 13.4279 96.4505 13.6202 96.8332C13.8059 97.2088 14.0834 97.4986 14.4528 97.7025C14.8152 97.9062 15.2487 98.0337 15.7531 98.0849L15.7437 98.6694C14.8077 98.6378 13.9715 98.4866 13.2351 98.2155C12.4987 97.9445 11.9201 97.5557 11.4994 97.049C11.0788 96.5424 10.8808 95.9202 10.9057 95.1823C10.9105 95.0388 10.9296 94.8787 10.9629 94.702C10.9962 94.5253 11.0314 94.3931 11.0686 94.3054L13.4762 94.407Z" fill="white"/>
<path d="M30.4188 76.1418L29.5136 78.5182L15.1594 73.0503L15.9953 70.856L18.0578 71.4331L30.4188 76.1418ZM23.9069 65.9584C24.9162 66.3429 25.7605 66.8437 26.4398 67.4609C27.1151 68.0693 27.5684 68.7613 27.7996 69.537C28.0332 70.3063 27.9858 71.1222 27.6573 71.9846C27.3263 72.8534 26.8405 73.4949 26.1999 73.9092C25.5553 74.3148 24.7985 74.5349 23.9294 74.5696C23.0603 74.6043 22.1236 74.4998 21.1191 74.2561L20.4388 73.997C19.4629 73.4863 18.6557 72.9264 18.0172 72.3174C17.3723 71.706 16.9441 71.0345 16.7327 70.3029C16.5148 69.5689 16.569 68.7739 16.895 67.9179C17.2284 67.0427 17.7299 66.3888 18.3994 65.9562C19.0689 65.5237 19.8582 65.3049 20.7671 65.3C21.6785 65.2888 22.658 65.4827 23.7056 65.8817L23.9069 65.9584ZM22.8004 68.2581C22.1807 68.0221 21.5882 67.8878 21.0227 67.8553C20.4596 67.8163 19.9654 67.9134 19.5402 68.1464C19.1174 68.3731 18.8013 68.7611 18.592 69.3104C18.4412 69.7065 18.3781 70.0738 18.4027 70.4124C18.421 70.7485 18.5106 71.0606 18.6715 71.3487C18.8348 71.6304 19.0587 71.8876 19.3432 72.1203C19.6212 72.3505 19.9433 72.561 20.3096 72.7518L22.044 73.4124C22.5331 73.511 23.0034 73.5438 23.4548 73.511C23.9063 73.4781 24.3102 73.3394 24.6667 73.0948C25.0193 72.8414 25.2966 72.4496 25.4985 71.9194C25.7078 71.37 25.7236 70.8676 25.546 70.4122C25.3619 69.9544 25.0468 69.5527 24.6005 69.2072C24.1478 68.8592 23.6149 68.5684 23.0016 68.3348L22.8004 68.2581Z" fill="white"/>
<path d="M33.8081 59.2176L32.4967 61.3964L19.0025 53.2743L20.3138 51.0956L33.8081 59.2176Z" fill="white"/>
<path d="M34.4355 40.0529L36.1116 38.1405L44.4552 45.4533L42.8737 47.2577L40.805 45.6355L34.4355 40.0529ZM39.8375 43.1923C40.5881 43.8501 41.1595 44.5464 41.5519 45.2811C41.939 46.0113 42.0972 46.759 42.0265 47.5242C41.9507 48.2849 41.5861 49.038 40.9327 49.7834C40.2118 50.6059 39.3867 51.0599 38.4574 51.1453C37.5281 51.2307 36.5108 50.789 35.4055 49.8203L30.0153 45.096L31.6915 43.1836L37.0971 47.9214C37.4826 48.2594 37.8403 48.4683 38.1701 48.5483C38.4993 48.6187 38.7981 48.5942 39.0663 48.4748C39.3346 48.3554 39.5746 48.1749 39.7864 47.9333C40.2414 47.4141 40.4994 46.9175 40.5602 46.4436C40.6205 45.9601 40.5321 45.5009 40.2952 45.0659C40.0582 44.631 39.7238 44.2243 39.292 43.8459L39.8375 43.1923Z" fill="white"/>
<path d="M53.3242 34.0659C53.1851 33.8797 53.009 33.7468 52.7959 33.6671C52.5882 33.5832 52.2984 33.5779 51.9264 33.651C51.5543 33.7241 51.0618 33.9043 50.4487 34.1915C49.7207 34.5305 49.0339 34.7705 48.3883 34.9114C47.7482 35.0482 47.1651 35.0443 46.639 34.8997C46.1184 34.7511 45.672 34.4275 45.2997 33.9291C44.9397 33.4472 44.7453 32.9013 44.7164 32.2915C44.6889 31.6721 44.8406 31.0469 45.1713 30.4159C45.5034 29.7753 46.0227 29.1912 46.7292 28.6635C47.4741 28.1071 48.209 27.7545 48.9339 27.6055C49.6547 27.4511 50.317 27.4811 50.9209 27.6956C51.5262 27.9005 52.0292 28.2713 52.4301 28.808L50.3928 30.3298C50.131 29.9793 49.7704 29.7708 49.3112 29.7042C48.8533 29.6281 48.3643 29.7844 47.844 30.173C47.5208 30.4144 47.2886 30.6689 47.1472 30.9366C47.0114 31.2002 46.95 31.455 46.9632 31.7012C46.9819 31.9432 47.0648 32.1628 47.2121 32.36C47.3553 32.5516 47.5321 32.6798 47.7425 32.7445C47.9584 32.8051 48.236 32.794 48.5752 32.7113C48.9199 32.6245 49.3646 32.4544 49.9092 32.2012C50.6947 31.8363 51.4157 31.5794 52.0722 31.4303C52.7247 31.2757 53.3153 31.2782 53.8441 31.4379C54.3743 31.5879 54.8419 31.9341 55.2469 32.4763C55.6355 32.9966 55.8305 33.5719 55.832 34.2021C55.839 34.8283 55.6573 35.4589 55.2869 36.0939C54.922 36.7249 54.3726 37.3144 53.6387 37.8626C52.8226 38.4721 52.0269 38.8404 51.2514 38.9673C50.476 39.0943 49.7754 39.0417 49.1497 38.8094C48.5254 38.5675 48.0312 38.2029 47.6671 37.7155L49.6305 36.2489C49.9142 36.5831 50.2235 36.7915 50.5583 36.8742C50.8986 36.9528 51.2397 36.9411 51.5817 36.8393C51.9251 36.7278 52.2447 36.5617 52.5404 36.3408C52.8909 36.079 53.1464 35.8156 53.3069 35.5507C53.4729 35.2817 53.5568 35.0228 53.5586 34.7739C53.5619 34.5155 53.4837 34.2795 53.3242 34.0659Z" fill="white"/>
<path d="M76.5073 20.1912L71.3153 21.8979L70.6749 19.9497L75.8669 18.243L76.5073 20.1912Z" fill="white"/>
<path d="M106.781 22.1416L98.8965 22.0415L98.9235 19.9191L106.808 20.0193L106.781 22.1416ZM99.6347 22.0508L96.9895 22.0172L97.1791 7.08876L99.8244 7.12237L99.6347 22.0508ZM105.83 15.4845L98.9809 15.3975L99.0075 13.3058L105.857 13.3929L105.83 15.4845ZM106.892 9.34515L99.0591 9.24563L99.0862 7.11299L106.92 7.2125L106.892 9.34515Z" fill="white"/>
<path d="M116.102 23.6047L113.626 23.0283L116.141 12.2223L118.467 12.7639L118.08 15.1058L116.102 23.6047ZM116.21 17.534C116.46 16.4903 116.855 15.6207 117.396 14.9254C117.938 14.2235 118.583 13.7312 119.329 13.4488C120.077 13.1597 120.881 13.115 121.74 13.3149C122.439 13.4776 123.014 13.7518 123.464 14.1374C123.917 14.5164 124.217 15.0355 124.365 15.6947C124.515 16.3472 124.475 17.1695 124.244 18.1616L122.624 25.1225L120.137 24.5437L121.762 17.5628C121.878 17.0635 121.897 16.6503 121.819 16.3232C121.747 15.9977 121.582 15.7418 121.324 15.5553C121.073 15.3637 120.745 15.2207 120.339 15.1261C119.926 15.0301 119.541 15.0281 119.182 15.1201C118.832 15.2071 118.51 15.3707 118.215 15.611C117.928 15.8528 117.679 16.1528 117.469 16.5111C117.266 16.8709 117.113 17.2706 117.011 17.71L116.21 17.534Z" fill="white"/>
<path d="M146.63 33.3417C146.757 33.147 146.821 32.9359 146.823 32.7084C146.83 32.4846 146.735 32.2106 146.538 31.8865C146.342 31.5623 146.003 31.1618 145.522 30.685C144.954 30.1181 144.492 29.5558 144.138 28.9981C143.789 28.4442 143.592 27.8953 143.547 27.3516C143.507 26.8116 143.657 26.2812 143.997 25.7601C144.326 25.2563 144.772 24.8859 145.334 24.649C145.906 24.41 146.545 24.3373 147.252 24.4307C147.967 24.5222 148.695 24.8088 149.433 25.2906C150.212 25.7985 150.796 26.3672 151.185 26.9966C151.578 27.6203 151.778 28.2525 151.784 28.8933C151.8 29.5321 151.625 30.1321 151.259 30.6931L149.129 29.3038C149.368 28.9373 149.44 28.5271 149.344 28.073C149.258 27.6169 148.943 27.2114 148.399 26.8566C148.062 26.6363 147.743 26.5058 147.443 26.4652C147.148 26.4283 146.888 26.4584 146.662 26.5555C146.441 26.6563 146.263 26.8097 146.129 27.0158C145.998 27.2162 145.938 27.4263 145.95 27.6462C145.967 27.8697 146.073 28.1265 146.268 28.4166C146.468 28.7103 146.78 29.0694 147.206 29.4936C147.818 30.1056 148.308 30.6942 148.674 31.2593C149.043 31.8188 149.244 32.3742 149.276 32.9256C149.318 33.4751 149.154 34.0332 148.784 34.6C148.429 35.1439 147.956 35.525 147.365 35.7433C146.779 35.9653 146.125 36.0116 145.401 35.8824C144.683 35.7568 143.94 35.4438 143.173 34.9433C142.32 34.3868 141.7 33.7664 141.314 33.082C140.928 32.3976 140.737 31.7216 140.74 31.0542C140.752 30.3848 140.924 29.7953 141.257 29.2857L143.309 30.6247C143.093 31.006 143.004 31.3681 143.041 31.7109C143.085 32.0575 143.213 32.3738 143.426 32.6599C143.649 32.9439 143.915 33.1868 144.224 33.3885C144.591 33.6275 144.926 33.7768 145.23 33.8363C145.539 33.8996 145.811 33.8893 146.046 33.8054C146.289 33.7196 146.484 33.565 146.63 33.3417Z" fill="white"/>
<path d="M162.428 40.924C162.835 40.5189 163.047 40.0819 163.062 39.6131C163.083 39.1491 162.866 38.6894 162.413 38.234C162.143 37.9627 161.858 37.7736 161.558 37.6665C161.264 37.5547 160.981 37.5227 160.71 37.5704C160.44 37.6181 160.202 37.7433 159.999 37.9458L158.205 36.1437C158.626 35.7241 159.154 35.4643 159.787 35.3642C160.425 35.2592 161.1 35.3357 161.81 35.5934C162.524 35.856 163.212 36.3192 163.873 36.9829C164.461 37.5739 164.885 38.1984 165.145 38.8564C165.404 39.5143 165.463 40.1743 165.322 40.8362C165.185 41.5029 164.814 42.1378 164.208 42.7406L160.742 46.1915C160.374 46.558 160.076 46.9078 159.848 47.2408C159.62 47.5738 159.45 47.8925 159.338 48.1968L159.215 48.3197L157.377 46.474C157.484 46.2036 157.663 45.8946 157.916 45.5471C158.173 45.2045 158.444 44.8909 158.73 44.6064L162.428 40.924ZM161.068 42.8279L159.839 41.5926C159.202 40.9531 158.603 40.5892 158.043 40.501C157.492 40.4127 157.015 40.5688 156.613 40.9691C156.303 41.2778 156.15 41.6424 156.154 42.0629C156.163 42.4786 156.36 42.8803 156.746 43.2678C157.098 43.6215 157.475 43.8592 157.876 43.9809C158.286 44.1027 158.67 44.1349 159.028 44.0777C159.391 44.0157 159.667 43.8955 159.856 43.717L159.62 45.0941C159.364 45.2337 159.052 45.3466 158.684 45.4328C158.326 45.519 157.932 45.5496 157.502 45.5244C157.082 45.4993 156.652 45.3969 156.212 45.2171C155.783 45.0373 155.365 44.7439 154.96 44.3369C154.449 43.8234 154.095 43.2643 153.898 42.6597C153.701 42.055 153.664 41.4604 153.786 40.8758C153.918 40.2912 154.206 39.777 154.652 39.3333C155.485 38.5038 156.436 38.1796 157.504 38.3608C158.572 38.5421 159.677 39.2067 160.82 40.3549L162.166 41.7065L161.068 42.8279Z" fill="white"/>
<path d="M176.794 53.6332L178.224 55.8467L166.824 58.6458L165.934 57.2677L167.711 56.3149L176.794 53.6332ZM168.075 56.9345L166.479 58.1118L165.594 56.7423L172.816 47.4749L174.252 49.697L168.075 56.9345Z" fill="white"/>
<path d="M177.202 65.6911C178.211 65.3066 179.185 65.1551 180.123 65.2367C181.061 65.3182 181.896 65.6291 182.629 66.1694C183.37 66.7136 183.933 67.4904 184.317 68.4997C184.707 69.5218 184.806 70.4826 184.614 71.3822C184.429 72.2792 184.013 73.0671 183.364 73.7457C182.718 74.4308 181.89 74.9655 180.881 75.35L180.68 75.4266C179.677 75.8087 178.703 75.9602 177.759 75.881C176.823 75.8059 175.988 75.495 175.253 74.9483C174.52 74.4081 173.96 73.6301 173.574 72.6143C173.187 71.5986 173.086 70.6422 173.271 69.7452C173.456 68.8481 173.871 68.057 174.517 67.372C175.17 66.6846 175.997 66.1498 177 65.7677L177.202 65.6911ZM177.906 68.1441C177.292 68.3777 176.763 68.6781 176.318 69.0453C175.879 69.41 175.574 69.8296 175.404 70.3042C175.236 70.7851 175.261 71.313 175.48 71.888C175.697 72.4565 176.027 72.8613 176.47 73.1022C176.915 73.3495 177.422 73.4601 177.99 73.4339C178.566 73.4118 179.161 73.2839 179.775 73.0502L179.976 72.9736C180.583 72.7424 181.109 72.4433 181.554 72.0761C182.002 71.7153 182.31 71.2945 182.478 70.8136C182.652 70.3302 182.63 69.801 182.411 69.2261C182.194 68.6576 181.86 68.2509 181.408 68.006C180.965 67.765 180.455 67.6557 179.879 67.6779C179.304 67.7064 178.714 67.8363 178.107 68.0675L177.906 68.1441Z" fill="white"/>
<path d="M177.739 86.9277L177.268 84.4287L188.171 82.3758L188.642 84.8749L177.739 86.9277ZM190.993 81.6776C191.376 81.6055 191.715 81.6704 192.01 81.8721C192.312 82.0726 192.505 82.3946 192.588 82.8379C192.672 83.2813 192.61 83.6547 192.403 83.958C192.202 84.2601 191.911 84.4472 191.528 84.5193C191.152 84.5901 190.812 84.5219 190.508 84.3147C190.212 84.1062 190.022 83.7803 189.938 83.3369C189.855 82.8936 189.914 82.5242 190.116 82.2288C190.324 81.9322 190.616 81.7485 190.993 81.6776Z" fill="white"/>
<path d="M178.863 97.6511L178.777 95.1096L189.866 94.7362L189.947 97.1547L187.779 97.3509L178.863 97.6511ZM187.727 100.697C187.749 100.539 187.764 100.371 187.772 100.193C187.78 100.022 187.781 99.8508 187.775 99.68C187.756 99.1197 187.638 98.6552 187.42 98.2863C187.21 97.9241 186.913 97.6536 186.531 97.475C186.156 97.2961 185.715 97.1981 185.208 97.181L185.178 96.5972C186.114 96.5656 186.958 96.6603 187.711 96.8812C188.464 97.1021 189.068 97.4511 189.522 97.9283C189.975 98.4055 190.215 99.013 190.24 99.7509C190.244 99.8943 190.236 100.055 190.215 100.234C190.193 100.412 190.167 100.547 190.136 100.637L187.727 100.697Z" fill="white"/>
<path d="M172.051 120.061L172.795 117.629L187.484 122.119L186.798 124.364L184.701 123.927L172.051 120.061ZM179.234 129.783C178.201 129.467 177.325 129.025 176.605 128.454C175.891 127.893 175.392 127.233 175.109 126.475C174.824 125.723 174.817 124.906 175.086 124.023C175.358 123.134 175.8 122.461 176.411 122.005C177.027 121.557 177.767 121.286 178.632 121.193C179.497 121.1 180.438 121.141 181.457 121.317L182.153 121.53C183.161 121.973 184.004 122.478 184.682 123.042C185.367 123.609 185.839 124.25 186.099 124.966C186.366 125.684 186.365 126.48 186.098 127.356C185.824 128.252 185.368 128.938 184.729 129.415C184.09 129.891 183.317 130.163 182.411 130.229C181.502 130.301 180.512 130.174 179.439 129.846L179.234 129.783ZM180.183 127.414C180.817 127.608 181.417 127.702 181.984 127.697C182.548 127.698 183.035 127.567 183.443 127.306C183.85 127.052 184.139 126.643 184.311 126.081C184.435 125.676 184.473 125.305 184.426 124.969C184.385 124.635 184.274 124.329 184.094 124.053C183.913 123.783 183.672 123.541 183.372 123.328C183.079 123.117 182.744 122.929 182.366 122.763L180.591 122.221C180.096 122.155 179.625 122.154 179.176 122.217C178.728 122.28 178.335 122.446 177.995 122.714C177.661 122.991 177.41 123.4 177.244 123.943C177.073 124.505 177.091 125.007 177.299 125.45C177.513 125.894 177.854 126.274 178.323 126.588C178.798 126.905 179.349 127.159 179.977 127.351L180.183 127.414Z" fill="white"/>
<path d="M169.808 137.175L170.97 134.913L184.98 142.108L183.818 144.37L169.808 137.175Z" fill="white"/>
<path d="M170.472 156.338L168.928 158.359L160.111 151.624L161.568 149.717L163.741 151.197L170.472 156.338ZM164.871 153.569C164.078 152.964 163.461 152.307 163.02 151.601C162.584 150.898 162.376 150.163 162.395 149.395C162.42 148.631 162.733 147.855 163.335 147.067C163.999 146.198 164.791 145.689 165.713 145.542C166.634 145.394 167.679 145.766 168.847 146.658L174.543 151.009L172.999 153.03L167.287 148.667C166.879 148.355 166.508 148.171 166.174 148.113C165.841 148.065 165.544 148.11 165.285 148.247C165.025 148.384 164.798 148.58 164.603 148.836C164.184 149.384 163.96 149.897 163.931 150.374C163.903 150.861 164.022 151.313 164.288 151.731C164.554 152.149 164.915 152.532 165.371 152.881L164.871 153.569Z" fill="white"/>
<path d="M152.029 163.582C152.18 163.759 152.365 163.879 152.583 163.945C152.795 164.014 153.085 164 153.451 163.902C153.817 163.804 154.297 163.591 154.889 163.263C155.593 162.876 156.262 162.591 156.896 162.407C157.526 162.227 158.108 162.192 158.642 162.3C159.172 162.414 159.639 162.707 160.044 163.179C160.436 163.635 160.666 164.167 160.736 164.773C160.805 165.39 160.696 166.024 160.409 166.675C160.12 167.337 159.641 167.955 158.972 168.529C158.266 169.134 157.557 169.535 156.844 169.733C156.135 169.935 155.472 169.95 154.855 169.776C154.237 169.613 153.71 169.277 153.274 168.768L155.205 167.113C155.489 167.445 155.863 167.628 156.326 167.664C156.788 167.709 157.265 167.52 157.758 167.098C158.064 166.835 158.279 166.565 158.402 166.289C158.52 166.017 158.564 165.758 158.534 165.514C158.499 165.273 158.402 165.06 158.242 164.873C158.086 164.691 157.901 164.575 157.687 164.525C157.467 164.479 157.191 164.509 156.858 164.614C156.52 164.724 156.088 164.924 155.561 165.213C154.802 165.63 154.1 165.935 153.455 166.128C152.814 166.326 152.225 166.363 151.687 166.239C151.148 166.125 150.658 165.811 150.217 165.298C149.794 164.805 149.561 164.244 149.517 163.615C149.468 162.991 149.607 162.349 149.934 161.691C150.256 161.037 150.764 160.412 151.459 159.815C152.233 159.152 153.002 158.731 153.767 158.552C154.532 158.374 155.235 158.379 155.874 158.569C156.514 158.768 157.031 159.098 157.427 159.56L155.567 161.156C155.261 160.841 154.939 160.654 154.599 160.594C154.254 160.539 153.915 160.573 153.581 160.698C153.245 160.832 152.938 161.019 152.658 161.26C152.325 161.545 152.088 161.824 151.946 162.1C151.798 162.379 151.732 162.643 151.747 162.891C151.761 163.15 151.855 163.38 152.029 163.582Z" fill="white"/>
<path d="M129.831 178.985L134.897 176.933L135.667 178.834L130.601 180.886L129.831 178.985Z" fill="white"/>
<path d="M116.527 182.74L121.861 181.548L122.308 183.55L116.974 184.741L116.527 182.74Z" fill="white"/>
<path d="M102.787 184.256L108.244 183.958L108.356 186.006L102.899 186.304L102.787 184.256Z" fill="white"/>
</svg>
