<svg width="129" height="129" viewBox="0 0 129 129" fill="none" xmlns="http://www.w3.org/2000/svg">
<g id="Group">
<path id="s" d="M58.8901 114.651C58.8774 114.797 58.9101 114.927 58.9884 115.042C59.0617 115.156 59.2087 115.269 59.4293 115.382C59.6499 115.494 59.9726 115.615 60.3975 115.745C60.9175 115.908 61.3829 116.108 61.7936 116.345C62.1994 116.581 62.5101 116.868 62.7258 117.206C62.9411 117.548 63.029 117.945 62.9896 118.397C62.951 118.84 62.7889 119.238 62.5033 119.59C62.2178 119.943 61.8291 120.213 61.3373 120.4C60.8407 120.587 60.2616 120.652 59.6 120.594C58.9093 120.534 58.3229 120.373 57.841 120.11C57.359 119.848 57.001 119.513 56.767 119.105C56.5329 118.698 56.4375 118.246 56.4807 117.75L58.6843 117.941C58.6584 118.238 58.7299 118.487 58.8986 118.688C59.0621 118.893 59.3432 119.013 59.7421 119.048C59.9561 119.067 60.1466 119.047 60.3135 118.988C60.4804 118.929 60.6129 118.842 60.711 118.728C60.8039 118.619 60.8573 118.484 60.8713 118.323C60.884 118.177 60.849 118.044 60.7664 117.924C60.6837 117.804 60.5414 117.694 60.3394 117.593C60.1374 117.492 59.8641 117.395 59.5194 117.301C58.9693 117.145 58.4763 116.953 58.0405 116.724C57.6042 116.5 57.2665 116.213 57.0273 115.864C56.7878 115.519 56.6913 115.079 56.7379 114.544C56.7786 114.077 56.9537 113.671 57.2631 113.326C57.5673 112.985 57.9815 112.731 58.5056 112.566C59.0249 112.401 59.625 112.348 60.306 112.407C61.0503 112.472 61.6661 112.66 62.1536 112.972C62.641 113.284 62.9983 113.656 63.2254 114.088C63.452 114.524 63.5467 114.956 63.5094 115.384L61.4226 115.203C61.4309 114.939 61.379 114.718 61.2669 114.542C61.15 114.365 60.9928 114.229 60.7952 114.133C60.5928 114.037 60.3676 113.978 60.1195 113.957C59.8666 113.935 59.6522 113.948 59.4765 113.996C59.2954 114.049 59.156 114.13 59.0583 114.239C58.9601 114.353 58.9041 114.491 58.8901 114.651Z" fill="white"/>
<path id="c" d="M46.9627 111.245C46.729 111.159 46.5067 111.127 46.296 111.148C46.0852 111.169 45.9022 111.242 45.747 111.367C45.5872 111.491 45.4645 111.661 45.379 111.88L43.4269 111.162C43.6287 110.627 43.9429 110.204 44.3696 109.893C44.7963 109.582 45.2864 109.395 45.8398 109.333C46.3931 109.272 46.9608 109.348 47.5428 109.562C48.3127 109.845 48.8927 110.248 49.2829 110.772C49.6685 111.293 49.885 111.886 49.9326 112.548C49.9756 113.209 49.8681 113.89 49.6102 114.591L49.5419 114.777C49.2823 115.483 48.9219 116.073 48.4608 116.549C47.9951 117.023 47.4464 117.333 46.8147 117.481C46.1784 117.626 45.4776 117.558 44.7123 117.277C44.0983 117.051 43.6036 116.734 43.2285 116.325C42.847 115.92 42.6066 115.449 42.5073 114.913C42.4017 114.38 42.4587 113.807 42.6783 113.196L44.6305 113.914C44.5491 114.15 44.5196 114.378 44.5422 114.6C44.5584 114.824 44.6348 115.027 44.7714 115.207C44.908 115.387 45.1069 115.526 45.3681 115.622C45.7347 115.757 46.0505 115.761 46.3154 115.635C46.5758 115.507 46.7994 115.295 46.9861 115C47.1712 114.709 47.3311 114.38 47.466 114.013L47.5343 113.828C47.6709 113.457 47.7661 113.099 47.8199 112.754C47.8675 112.413 47.8305 112.111 47.7088 111.847C47.5826 111.582 47.3339 111.382 46.9627 111.245Z" fill="white"/>
<path id="r" d="M37.1059 104.337L38.9343 105.582L34.4745 112.132L32.7551 110.962L33.6724 109.38L37.1059 104.337ZM31.9035 107.866C31.9841 107.938 32.0822 108.02 32.1977 108.11C32.3106 108.205 32.4154 108.285 32.5123 108.351C32.8312 108.568 33.1279 108.696 33.4024 108.736C33.6742 108.779 33.9265 108.738 34.1593 108.613C34.3921 108.488 34.6101 108.285 34.8133 108.004L35.0633 108.404C34.6759 108.973 34.2584 109.43 33.8108 109.776C33.3632 110.121 32.913 110.322 32.4601 110.38C32.0044 110.442 31.5748 110.336 31.1712 110.061C31.0783 109.998 30.9856 109.926 30.8929 109.845C30.7962 109.761 30.7252 109.683 30.6799 109.611L31.9035 107.866Z" fill="white"/>
<path id="o" d="M27.5111 101.866C26.9299 102.373 26.3149 102.715 25.6661 102.893C25.0136 103.073 24.3704 103.068 23.7362 102.876C23.1021 102.684 22.5217 102.287 21.9951 101.683C21.4621 101.073 21.1434 100.44 21.0389 99.7862C20.9313 99.1283 21.0127 98.4902 21.283 97.8718C21.5465 97.2529 21.9688 96.6898 22.55 96.1824L22.6659 96.0813C23.2434 95.5771 23.8584 95.2347 24.5108 95.054C25.1601 94.8697 25.8018 94.8734 26.4359 95.0652C27.0663 95.2603 27.6465 95.6613 28.1763 96.2682C28.7061 96.8751 29.0267 97.506 29.138 98.1606C29.2424 98.8149 29.1611 99.453 28.8939 100.075C28.6268 100.697 28.2045 101.26 27.627 101.764L27.5111 101.866ZM26.1675 100.093C26.4802 99.8197 26.7332 99.534 26.9264 99.2357C27.1165 98.9337 27.2131 98.6322 27.2162 98.3313C27.2161 98.0268 27.0892 97.7292 26.8355 97.4386C26.585 97.1517 26.3106 96.9895 26.012 96.9519C25.7103 96.9107 25.3986 96.9657 25.0769 97.1169C24.7519 97.2644 24.4331 97.4747 24.1205 97.7476L24.0046 97.8487C23.6993 98.1153 23.4516 98.3995 23.2615 98.7016C23.0646 99.0031 22.9643 99.3078 22.9608 99.6155C22.954 99.9196 23.079 100.219 23.3359 100.513C23.5864 100.8 23.8643 100.962 24.1697 101C24.4719 101.035 24.7857 100.975 25.1111 100.82C25.4328 100.669 25.7463 100.46 26.0517 100.194L26.1675 100.093Z" fill="white"/>
<path id="l" d="M20.9854 85.8263L21.9954 87.8024L11.9778 92.9221L10.9679 90.946L20.9854 85.8263Z" fill="white"/>
<path id="l_2" d="M17.5352 76.5887L18.1231 78.7286L7.27516 81.7093L6.68719 79.5693L17.5352 76.5887Z" fill="white"/>
<path id="-" d="M13.0253 55.5557L12.4396 59.6966L10.6701 59.4463L11.2558 55.3054L13.0253 55.5557Z" fill="white"/>
<path id="s_2" d="M22.5913 35.8133C22.4687 35.733 22.3385 35.7003 22.2004 35.7149C22.0651 35.7255 21.8957 35.8014 21.6924 35.9426C21.4891 36.0837 21.2295 36.3106 20.9138 36.6234C20.5242 37.0044 20.128 37.3198 19.7251 37.5696C19.3249 37.8153 18.9251 37.9533 18.5259 37.9837C18.1225 38.0114 17.7309 37.9008 17.351 37.652C16.9793 37.4086 16.7057 37.0777 16.5303 36.6593C16.3549 36.2409 16.3009 35.7707 16.3684 35.2488C16.4386 34.7227 16.6556 34.1819 17.0194 33.6264C17.3993 33.0464 17.8189 32.6062 18.2782 32.3058C18.7376 32.0054 19.2022 31.8486 19.672 31.8353C20.1418 31.8219 20.5851 31.9517 21.0017 32.2246L19.7899 34.075C19.5407 33.9118 19.2877 33.857 19.0308 33.9106C18.7725 33.9574 18.5337 34.1483 18.3144 34.4832C18.1966 34.6629 18.1243 34.8403 18.0973 35.0152C18.0703 35.1901 18.0838 35.3478 18.1377 35.4882C18.1903 35.6218 18.284 35.7328 18.4188 35.8211C18.5413 35.9013 18.675 35.9334 18.8197 35.9173C18.9645 35.9012 19.1291 35.8281 19.3136 35.698C19.4981 35.5678 19.7132 35.373 19.9589 35.1137C20.3564 34.7028 20.7592 34.3596 21.1673 34.084C21.5713 33.8058 21.9837 33.644 22.4045 33.5985C22.8213 33.5504 23.2543 33.6735 23.7036 33.9678C24.0957 34.2246 24.3708 34.5711 24.5288 35.0072C24.6853 35.4366 24.7123 35.9212 24.6097 36.461C24.5098 36.9968 24.2726 37.5506 23.8981 38.1225C23.4888 38.7475 23.0314 39.2008 22.5259 39.4826C22.0203 39.7644 21.5237 39.9032 21.0362 39.8991C20.5445 39.8923 20.1189 39.7712 19.7595 39.5358L20.9071 37.7834C21.1357 37.9156 21.3542 37.9741 21.5627 37.9588C21.7738 37.9395 21.9682 37.8654 22.1459 37.7367C22.3263 37.6038 22.4847 37.4332 22.6211 37.2249C22.7602 37.0125 22.85 36.8174 22.8906 36.6397C22.9297 36.4552 22.9243 36.2941 22.8744 36.1563C22.8205 36.0159 22.7261 35.9016 22.5913 35.8133Z" fill="white"/>
<path id="c_2" d="M31.2357 26.9175C31.4221 26.7523 31.5557 26.5718 31.6366 26.3761C31.7176 26.1803 31.7397 25.9845 31.7031 25.7886C31.6701 25.5895 31.5777 25.4006 31.4258 25.222L32.9823 23.842C33.3576 24.2728 33.5815 24.7497 33.6538 25.2729C33.7261 25.7961 33.6585 26.316 33.4511 26.8328C33.2436 27.3495 32.9079 27.8136 32.4438 28.225C31.83 28.7692 31.2003 29.0893 30.5546 29.1854C29.9126 29.2782 29.2885 29.1888 28.6822 28.9172C28.0796 28.6423 27.5305 28.2254 27.0348 27.6664L26.9036 27.5184C26.4048 26.9557 26.055 26.3588 25.8543 25.7276C25.6572 25.0931 25.6432 24.4628 25.8123 23.8365C25.985 23.207 26.3765 22.6218 26.9866 22.0808C27.4762 21.6467 27.9898 21.3611 28.5272 21.2239C29.0651 21.0799 29.5936 21.0909 30.1129 21.257C30.6325 21.4162 31.1096 21.7371 31.544 22.2198L29.9876 23.5998C29.8187 23.4167 29.6314 23.2826 29.4255 23.1976C29.22 23.1057 29.0056 23.0773 28.7821 23.1122C28.5586 23.1472 28.3427 23.2571 28.1345 23.4417C27.8422 23.7008 27.689 23.977 27.6748 24.2701C27.6643 24.5601 27.745 24.8572 27.917 25.1615C28.0857 25.4622 28.2996 25.7587 28.5587 26.051L28.6899 26.199C28.9523 26.4949 29.2225 26.7481 29.5004 26.9585C29.7787 27.162 30.0626 27.2724 30.3521 27.2898C30.6452 27.304 30.9398 27.1799 31.2357 26.9175Z" fill="white"/>
<path id="r_2" d="M41.9854 21.5029L40.0236 22.5246L36.3629 15.496L38.2077 14.5351L39.1671 16.0917L41.9854 21.5029ZM41.3382 15.25C41.2362 15.2866 41.118 15.3344 40.9835 15.3934C40.8468 15.4481 40.7265 15.5025 40.6226 15.5566C40.2805 15.7348 40.0272 15.9356 39.8627 16.1589C39.696 16.3778 39.6126 16.6194 39.6126 16.8837C39.6126 17.148 39.6883 17.4361 39.8398 17.7481L39.3686 17.7788C39.0506 17.1682 38.8455 16.5841 38.7533 16.0265C38.661 15.4689 38.6966 14.9769 38.8599 14.5506C39.021 14.1198 39.318 13.7917 39.7511 13.5662C39.8507 13.5143 39.958 13.4666 40.073 13.4233C40.1924 13.3776 40.2946 13.3519 40.3797 13.3461L41.3382 15.25Z" fill="white"/>
<path id="o_2" d="M48.7028 14.2195C48.5308 13.4674 48.5202 12.7636 48.6708 12.1081C48.8204 11.4478 49.1297 10.8837 49.5988 10.4159C50.0678 9.94799 50.6927 9.62482 51.4733 9.44635C52.2635 9.2657 52.9714 9.28416 53.5972 9.50173C54.2277 9.71822 54.7514 10.0919 55.1682 10.6226C55.5888 11.1476 55.885 11.7861 56.057 12.5382L56.0912 12.6881C56.2621 13.4354 56.2727 14.1393 56.1232 14.7995C55.9784 15.4588 55.6714 16.0223 55.2024 16.4902C54.7323 16.9533 54.1045 17.2746 53.3191 17.4542C52.5337 17.6337 51.8263 17.6176 51.1968 17.4059C50.5711 17.1883 50.0474 16.8147 49.6258 16.285C49.2041 15.7553 48.9079 15.1168 48.737 14.3695L48.7028 14.2195ZM50.9005 13.8749C50.993 14.2795 51.1249 14.6375 51.2963 14.9489C51.4724 15.2593 51.6923 15.487 51.9559 15.6321C52.2242 15.7761 52.5464 15.8051 52.9224 15.7191C53.2937 15.6343 53.5665 15.4692 53.7409 15.224C53.92 14.9777 54.019 14.677 54.038 14.3221C54.0618 13.966 54.0275 13.5857 53.935 13.1811L53.9007 13.0312C53.8104 12.6361 53.6771 12.2834 53.501 11.973C53.3285 11.6568 53.1076 11.4243 52.8382 11.2756C52.5735 11.1257 52.2508 11.0943 51.87 11.1814C51.4987 11.2663 51.224 11.4342 51.046 11.6853C50.8728 11.9353 50.7772 12.2401 50.7592 12.5998C50.7402 12.9548 50.7759 13.3298 50.8662 13.7249L50.9005 13.8749Z" fill="white"/>
<path id="l_3" d="M65.9205 16.0604L63.7017 16.0151L63.9316 4.76741L66.1503 4.81276L65.9205 16.0604Z" fill="white"/>
<path id="l_4" d="M75.6915 17.3918L73.5281 16.8972L76.0354 5.93012L78.1988 6.42473L75.6915 17.3918Z" fill="white"/>
<path id="-_2" d="M96.3549 23.3714L92.9841 20.896L94.0419 19.4556L97.4127 21.931L96.3549 23.3714Z" fill="white"/>
<path id="s_3" d="M109.22 41.1405C109.349 41.0705 109.44 40.9712 109.492 40.8427C109.547 40.7185 109.56 40.5334 109.532 40.2874C109.504 40.0415 109.426 39.7055 109.3 39.2794C109.149 38.7559 109.059 38.2575 109.029 37.7844C109.002 37.3156 109.07 36.8981 109.232 36.532C109.398 36.1636 109.681 35.8709 110.08 35.6539C110.47 35.4416 110.891 35.3572 111.343 35.4007C111.795 35.4441 112.234 35.619 112.662 35.9255C113.092 36.2362 113.466 36.6833 113.783 37.2667C114.115 37.8758 114.304 38.4537 114.351 39.0005C114.398 39.5473 114.317 40.0308 114.106 40.4511C113.896 40.8713 113.572 41.2003 113.134 41.4383L112.077 39.4951C112.339 39.3528 112.507 39.1558 112.581 38.9042C112.662 38.6545 112.607 38.3538 112.416 38.002C112.313 37.8133 112.191 37.6657 112.05 37.5591C111.909 37.4525 111.763 37.3898 111.614 37.3709C111.471 37.354 111.329 37.384 111.188 37.461C111.059 37.5309 110.968 37.6335 110.913 37.7687C110.859 37.9038 110.845 38.0834 110.873 38.3076C110.9 38.5317 110.97 38.8133 111.082 39.1525C111.256 39.6971 111.368 40.2144 111.418 40.7043C111.471 41.1918 111.419 41.6317 111.26 42.0239C111.105 42.4138 110.792 42.7371 110.32 42.9937C109.908 43.2176 109.473 43.296 109.014 43.2288C108.561 43.1635 108.122 42.958 107.695 42.6122C107.27 42.2706 106.894 41.7996 106.568 41.1991C106.211 40.5428 106.028 39.9253 106.019 39.3466C106.01 38.7679 106.122 38.2647 106.357 37.8371C106.595 37.4072 106.903 37.0896 107.281 36.8843L108.282 38.7246C108.057 38.8634 107.902 39.0282 107.817 39.2191C107.734 39.4142 107.707 39.6205 107.737 39.838C107.768 40.0598 107.844 40.28 107.963 40.4988C108.084 40.7219 108.213 40.8933 108.351 41.0131C108.495 41.1349 108.639 41.2064 108.784 41.2276C108.933 41.2465 109.079 41.2174 109.22 41.1405Z" fill="white"/>
<path id="c_3" d="M112.967 52.9652C113.024 53.2075 113.12 53.4106 113.254 53.5746C113.388 53.7385 113.55 53.8507 113.74 53.9111C113.931 53.9762 114.141 53.9842 114.37 53.935L114.849 55.9591C114.292 56.086 113.766 56.0575 113.271 55.8736C112.776 55.6897 112.35 55.3842 111.993 54.9569C111.636 54.5296 111.386 54.0142 111.243 53.4108C111.054 52.6126 111.07 51.9063 111.291 51.292C111.513 50.6825 111.887 50.1749 112.413 49.7694C112.941 49.3686 113.568 49.0821 114.295 48.91L114.487 48.8645C115.219 48.6912 115.91 48.6655 116.561 48.7874C117.213 48.914 117.775 49.1999 118.247 49.6453C118.72 50.0953 119.05 50.7171 119.238 51.5106C119.389 52.1473 119.397 52.7348 119.264 53.2732C119.136 53.8152 118.877 54.2756 118.485 54.6545C118.098 55.0369 117.59 55.3053 116.959 55.4597L116.48 53.4355C116.721 53.3734 116.928 53.2718 117.1 53.1306C117.278 52.9931 117.405 52.8176 117.48 52.6042C117.555 52.3908 117.56 52.1487 117.496 51.8778C117.406 51.4977 117.235 51.232 116.984 51.0808C116.733 50.9344 116.433 50.8649 116.084 50.8724C115.739 50.8787 115.377 50.9269 114.997 51.0169L114.804 51.0624C114.419 51.1535 114.068 51.2717 113.752 51.417C113.441 51.5659 113.209 51.7637 113.057 52.0105C112.905 52.2621 112.875 52.5803 112.967 52.9652Z" fill="white"/>
<path id="r_3" d="M112.65 64.9974L112.678 62.7856L120.602 62.8866L120.576 64.9665L118.751 65.0751L112.65 64.9974ZM118.465 67.3861C118.481 67.2789 118.495 67.1521 118.506 67.0057C118.523 66.8594 118.532 66.7277 118.533 66.6105C118.538 66.2248 118.481 65.9067 118.362 65.6561C118.248 65.4056 118.075 65.2179 117.842 65.0928C117.609 64.9678 117.32 64.8982 116.973 64.884L117.169 64.4543C117.857 64.4631 118.469 64.5588 119.004 64.7414C119.539 64.924 119.955 65.1881 120.254 65.5337C120.557 65.8794 120.705 66.2964 120.699 66.7846C120.698 66.8969 120.689 67.014 120.673 67.1359C120.657 67.2626 120.631 67.3648 120.596 67.4425L118.465 67.3861Z" fill="white"/>
<path id="o_3" d="M115.888 74.3615C116.632 74.5659 117.257 74.8895 117.763 75.3324C118.274 75.7767 118.625 76.3161 118.815 76.9507C119.005 77.5853 118.994 78.2886 118.782 79.0608C118.567 79.8424 118.216 80.4573 117.728 80.9057C117.239 81.3587 116.662 81.6432 115.997 81.7593C115.336 81.8814 114.633 81.8402 113.889 81.6358L113.741 81.5951C113.002 81.392 112.377 81.0683 111.866 80.6241C111.353 80.1846 111.002 79.6476 110.812 79.013C110.626 78.3796 110.64 77.6746 110.854 76.8977C111.067 76.1208 111.416 75.5052 111.901 75.0509C112.388 74.6026 112.965 74.318 113.631 74.1973C114.298 74.0765 115 74.1176 115.74 74.3207L115.888 74.3615ZM115.152 76.4607C114.751 76.3507 114.374 76.2975 114.018 76.3011C113.661 76.3094 113.357 76.3954 113.104 76.5589C112.85 76.7272 112.672 76.9973 112.57 77.3692C112.469 77.7365 112.485 78.0549 112.619 78.3245C112.751 78.5989 112.969 78.8284 113.273 79.0131C113.575 79.2026 113.927 79.3522 114.327 79.4622L114.475 79.503C114.866 79.6103 115.24 79.6599 115.596 79.6515C115.957 79.6492 116.266 79.5646 116.525 79.3976C116.782 79.2354 116.962 78.9659 117.066 78.5893C117.167 78.222 117.149 77.9006 117.012 77.625C116.873 77.354 116.65 77.1256 116.342 76.9396C116.038 76.7548 115.691 76.6088 115.3 76.5014L115.152 76.4607Z" fill="white"/>
<path id="l_5" d="M106.119 88.6589L107.209 86.7257L117.009 92.2504L115.919 94.1836L106.119 88.6589Z" fill="white"/>
<path id="l_6" d="M100.323 96.6366L101.782 94.9647L110.257 102.363L108.798 104.035L100.323 96.6366Z" fill="white"/>
<path id="-_3" d="M85.2772 112.011L89.053 110.212L89.8214 111.826L86.0456 113.624L85.2772 112.011Z" fill="white"/>
</g>
</svg>
