<?xml version="1.0" encoding="UTF-8"?>
<svg id="Calque_2" data-name="Calque 2" xmlns="http://www.w3.org/2000/svg" viewBox="0 0 1444 829">
  <path d="M758,76v31h-62v-31h62m1-1h-64v33h64v-33h0Z" style="fill: #fff;"/>
  <path d="M249,749v31h-62v-31h62m1-1h-64v33h64v-33h0Z" style="fill: #fff;"/>
  <path d="M1333,743v31h-62v-31h62m1-1h-64v33h64v-33h0Z" style="fill: #fff;"/>
  <path d="M240,227v31h-62v-31h62m1-1h-64v33h64v-33h0Z" style="fill: #fff;"/>
  <path d="M1313,214v31h-62v-31h62m1-1h-64v33h64v-33h0Z" style="fill: #fff;"/>
</svg>