<?xml version="1.0" encoding="UTF-8"?>
<svg id="Calque_3" data-name="Calque 3" xmlns="http://www.w3.org/2000/svg" viewBox="0 0 1444 829">
  <path d="M558,650v31h-62v-31h62m1-1h-64v33h64v-33h0Z" style="fill: #fff;"/>
  <path d="M161,442v31h-62v-31h62m1-1H98v33h64v-33h0Z" style="fill: #fff;"/>
  <path d="M1220,451v31h-62v-31h62m1-1h-64v33h64v-33h0Z" style="fill: #fff;"/>
  <path d="M1025,176v31h-62v-31h62m1-1h-64v33h64v-33h0Z" style="fill: #fff;"/>
  <path d="M425,83v31h-62v-31h62m1-1h-64v33h64v-33h0Z" style="fill: #fff;"/>
  <path d="M590,238v31h-62v-31h62m1-1h-64v33h64v-33h0Z" style="fill: #fff;"/>
  <path d="M1014,683v31h-62v-31h62m1-1h-64v33h64v-33h0Z" style="fill: #fff;"/>
</svg>