<?xml version="1.0" encoding="utf-8"?>
<!-- Generator: Adobe Illustrator 27.0.0, SVG Export Plug-In . SVG Version: 6.00 Build 0)  -->
<svg version="1.1" id="Calque_1" xmlns="http://www.w3.org/2000/svg" xmlns:xlink="http://www.w3.org/1999/xlink" x="0px" y="0px"
	 viewBox="0 0 50 50" style="enable-background:new 0 0 50 50;" xml:space="preserve">
<style type="text/css">
	.st0{fill:#BCFF00;}
</style>
<path class="st0" d="M25,2C12.3,2,2,12.3,2,25s10.3,23,23,23s23-10.3,23-23S37.7,2,25,2z M25,7c4.3,0,8.2,1.5,11.2,4
	c-1,0.6-1.5,1.7-1.5,2.9c0,1.6,0.9,3,1.9,4.6c0.8,1.3,1.6,3,1.6,5.4c0,1.7-0.5,3.8-1.5,6.4l-2,6.6l-7.1-21.2
	c1.2-0.1,2.3-0.2,2.3-0.2c1-0.1,0.9-1.6-0.1-1.6c0,0,0,0-0.1,0c0,0-3.2,0.3-5.3,0.3c-1.9,0-5.2-0.3-5.2-0.3s0,0-0.1,0
	c-1,0-1.1,1.6-0.1,1.6c0,0,1,0.1,2.1,0.2l3.1,8.4L19.9,37l-7.2-21.4c1.2-0.1,2.3-0.2,2.3-0.2c1-0.1,0.9-1.6-0.1-1.6c0,0,0,0-0.1,0
	c0,0-2.2,0.2-4.1,0.3C14,9.8,19.2,7,25,7z M7,25c0-1.8,0.3-3.5,0.8-5.2l7.4,20.3C10.3,36.9,7,31.3,7,25z M19.7,42.2L25,26.6
	l5.7,15.5C28.9,42.7,27,43,25,43C23.1,43,21.4,42.7,19.7,42.2z M35.3,39.8L35.3,39.8l5.3-15.4c0.8-2,1.2-3.7,1.4-5.3
	c0.6,1.9,1,3.8,1,5.9C43,31.1,40,36.5,35.3,39.8z"/>
</svg>
